<svg width="52" height="50" viewBox="0 0 52 50" fill="none" xmlns="http://www.w3.org/2000/svg">
<path d="M0.579435 39.5L12.9394 11.5H20.7394L33.1394 39.5H24.8994L15.2194 15.38H18.3394L8.65944 39.5H0.579435ZM7.33943 34.06L9.37944 28.22H23.0594L25.0994 34.06H7.33943Z" fill="white"/>
<path d="M37.8992 40.06C35.6059 40.06 33.3926 39.78 31.2592 39.22C29.1526 38.6333 27.4326 37.8867 26.0992 36.98L28.6992 31.14C29.9526 31.94 31.3926 32.6067 33.0192 33.14C34.6726 33.6467 36.3126 33.9 37.9392 33.9C39.0326 33.9 39.9126 33.8067 40.5792 33.62C41.2459 33.4067 41.7259 33.14 42.0192 32.82C42.3392 32.4733 42.4992 32.0733 42.4992 31.62C42.4992 30.98 42.2059 30.4733 41.6192 30.1C41.0326 29.7267 40.2726 29.42 39.3392 29.18C38.4059 28.94 37.3659 28.7 36.2192 28.46C35.0992 28.22 33.9659 27.9133 32.8192 27.54C31.6992 27.1667 30.6726 26.6867 29.7392 26.1C28.8059 25.4867 28.0459 24.7 27.4592 23.74C26.8726 22.7533 26.5792 21.5133 26.5792 20.02C26.5792 18.34 27.0326 16.82 27.9392 15.46C28.8726 14.1 30.2592 13.0067 32.0992 12.18C33.9392 11.3533 36.2326 10.94 38.9792 10.94C40.8192 10.94 42.6192 11.1533 44.3792 11.58C46.1659 11.98 47.7526 12.58 49.1392 13.38L46.6992 19.26C45.3659 18.54 44.0459 18.0067 42.7392 17.66C41.4326 17.2867 40.1659 17.1 38.9392 17.1C37.8459 17.1 36.9659 17.22 36.2992 17.46C35.6326 17.6733 35.1526 17.9667 34.8592 18.34C34.5659 18.7133 34.4192 19.14 34.4192 19.62C34.4192 20.2333 34.6992 20.7267 35.2592 21.1C35.8459 21.4467 36.6059 21.74 37.5392 21.98C38.4992 22.1933 39.5392 22.42 40.6592 22.66C41.8059 22.9 42.9392 23.2067 44.0592 23.58C45.2059 23.9267 46.2459 24.4067 47.1792 25.02C48.1126 25.6067 48.8592 26.3933 49.4192 27.38C50.0059 28.34 50.2992 29.5533 50.2992 31.02C50.2992 32.6467 49.8326 34.1533 48.8992 35.54C47.9926 36.9 46.6192 37.9933 44.7792 38.82C42.9659 39.6467 40.6726 40.06 37.8992 40.06Z" fill="white"/>
</svg>
